<?xml version="1.0" encoding="UTF-8" standalone="no"?>
<!-- Created with Inkscape (http://www.inkscape.org/) -->

<svg
   xmlns:dc="http://purl.org/dc/elements/1.1/"
   xmlns:cc="http://creativecommons.org/ns#"
   xmlns:rdf="http://www.w3.org/1999/02/22-rdf-syntax-ns#"
   xmlns:svg="http://www.w3.org/2000/svg"
   xmlns="http://www.w3.org/2000/svg"
   xmlns:xlink="http://www.w3.org/1999/xlink"
   xmlns:sodipodi="http://sodipodi.sourceforge.net/DTD/sodipodi-0.dtd"
   xmlns:inkscape="http://www.inkscape.org/namespaces/inkscape"
   width="166.08"
   height="192"
   viewBox="0 0 43.942003 50.800002"
   version="1.1"
   id="svg8"
   inkscape:version="0.92.3 (2405546, 2018-03-11)"
   sodipodi:docname="GitHub.svg">
  <defs
     id="defs2">
    <pattern
       inkscape:collect="always"
       xlink:href="#p1-2"
       id="pattern6614"
       patternTransform="matrix(0.03170533,0,0,0.03170533,23.211173,274.24972)" />
    <pattern
       id="p1"
       patternUnits="userSpaceOnUse"
       x="0"
       y="0"
       width="85"
       height="85"
       patternTransform="translate(1366,1024) rotate(360 0 0)">
      <path
         fill="#99e4f9"
         fill-opacity="0.7"
         d="M0 0H85v5H5V85H0z"
         id="path2809" />
    </pattern>
    <pattern
       patternTransform="translate(1366,1024) rotate(360 0 0)"
       height="85"
       width="85"
       y="0"
       x="0"
       patternUnits="userSpaceOnUse"
       id="p1-2">
      <path
         id="path6573"
         d="M0 0H85v5H5V85H0z"
         fill-opacity="0.7"
         fill="#99e4f9" />
    </pattern>
    <clipPath
       clipPathUnits="userSpaceOnUse"
       id="clipPath6634">
      <path
         inkscape:label="Clipper"
         transform="matrix(0.19854641,0,0,0.19878178,2.5782303,234.98118)"
         d="M 195.34748,240.60803 97.673736,296.99998 -3.7838365e-6,240.60802 -3.2873954e-6,127.8241 97.673737,71.432144 195.34748,127.8241 Z"
         inkscape:randomized="0"
         inkscape:rounded="0"
         inkscape:flatsided="true"
         sodipodi:arg2="1.0471976"
         sodipodi:arg1="0.52359878"
         sodipodi:r2="97.673744"
         sodipodi:r1="112.78392"
         sodipodi:cy="184.21606"
         sodipodi:cx="97.673737"
         sodipodi:sides="6"
         id="path6636"
         style="fill:#00ffff;fill-opacity:1;stroke-width:0.20809446"
         sodipodi:type="star" />
    </clipPath>
    <clipPath
       id="b">
      <g
         class="x"
         id="use1619"
         transform="matrix(0.05779911,0,0,0.05779911,2351.6819,1975.7511)">
        <path
           id="path2884"
           d="m 549,679 c 9,0 16,3 21,9 6,6 9,13 9,22 0,8 -3,15 -9,22 -25,21 -52,37 -82,49 -30,11 -62,17 -95,17 -75,0 -139,-26 -192,-80 -53,-53 -80,-117 -80,-192 0,-75 27,-139 80,-192 53,-53 117,-80 192,-80 33,0 65,6 95,17 30,11 58,28 82,49 7,6 11,14 11,23 0,9 -3,16 -9,22 -6,6 -13,9 -21,9 -7,0 -14,-2 -19,-7 -39,-34 -86,-52 -139,-52 -59,0 -108,21 -149,62 -41,41 -62,91 -62,149 0,59 21,108 62,149 41,41 91,62 149,62 25,0 50,-5 74,-14 24,-9 45,-22 64,-38 5,-4 11,-6 19,-6 z M 783,526 C 783,634 745,727 668,803 592,879 499,917 392,917 284,917 192,879 115,803 39,726 0,634 0,526 0,418 38,326 115,250 191,173 283,135 392,135 c 108,0 200,38 276,115 77,76 115,168 115,276 z M 392,176 C 296,176 213,210 144,279 76,347 42,429 42,526 c 0,97 34,179 102,248 69,68 152,103 248,103 96,0 178,-34 247,-103 C 708,705 742,623 742,527 742,430 708,348 639,280 571,211 489,177 392,177 Z m 937,367 -186,-223 c -5,-5 -7,-12 -7,-20 0,-8 3,-16 9,-21 6,-6 13,-9 22,-9 8,0 15,3 21,9 l 181,216 180,-216 c 7,-6 14,-9 22,-9 9,0 16,3 22,9 6,6 9,13 9,22 0,8 -3,15 -7,20 l -187,223 188,225 c 4,6 6,12 6,19 0,9 -3,16 -9,22 -6,6 -13,9 -22,9 -8,0 -15,-3 -20,-9 L 1369,593 1187,810 c -5,6 -12,9 -20,9 -9,0 -16,-3 -22,-9 -6,-6 -9,-13 -9,-21 0,-7 2,-13 6,-18 z m 412,244 c 0,9 -3,16 -9,22 -6,6 -13,9 -22,9 -8,0 -15,-3 -21,-9 -6,-6 -9,-13 -9,-21 V 302 c 0,-8 3,-16 9,-21 6,-6 13,-9 21,-9 9,0 16,3 22,9 6,6 9,13 9,22 v 33 c 49,-42 100,-63 152,-63 58,0 108,21 150,63 10,10 21,23 32,38 11,-15 22,-28 32,-38 42,-42 92,-62 150,-62 59,0 109,21 151,63 41,41 62,92 62,150 v 304 c 0,9 -3,16 -9,22 -6,6 -13,9 -22,9 -8,0 -15,-3 -21,-9 -6,-6 -9,-13 -9,-21 V 488 c 0,-42 -15,-78 -45,-107 -30,-30 -65,-45 -107,-45 -41,0 -77,15 -107,45 -30,30 -45,65 -45,107 v 304 c 0,9 -3,16 -9,22 -6,6 -13,9 -21,9 -9,0 -16,-3 -22,-9 -6,-6 -9,-13 -9,-21 V 489 c 0,-42 -14,-78 -44,-107 -30,-30 -66,-45 -107,-45 -42,0 -78,15 -108,45 -29,30 -44,65 -44,107 z m 861,-243 c 0,59 21,109 63,150 41,42 91,63 150,63 59,0 109,-21 150,-62 42,-41 62,-91 62,-150 0,-59 -20,-109 -62,-150 -41,-42 -91,-62 -150,-62 -59,0 -109,21 -150,63 -42,42 -63,92 -63,150 z m 0,478 c 0,9 -3,16 -9,22 -6,5 -13,8 -21,8 -9,0 -16,-3 -22,-8 -6,-6 -8,-13 -8,-22 V 545 c 0,-75 26,-140 80,-193 53,-53 117,-80 193,-80 75,0 140,27 193,80 54,53 80,118 80,193 0,76 -26,140 -80,193 -53,53 -118,80 -193,80 -76,0 -140,-27 -193,-80 l -20,-19 z M 3170,66 c 0,-8 3,-16 9,-21 6,-6 13,-9 21,-9 9,0 16,3 22,9 6,6 9,13 9,21 v 691 h 50 c 9,0 16,3 22,9 6,6 9,13 9,22 0,9 -3,16 -9,22 -6,6 -13,9 -22,9 h -81 c -8,0 -15,-3 -21,-9 -6,-6 -9,-13 -9,-21 z m 716,448 c -9,-48 -30,-89 -61,-120 -42,-42 -92,-62 -151,-62 -58,0 -108,21 -150,63 -31,31 -52,71 -62,120 z m -56,186 c 9,0 16,3 22,9 5,6 8,13 8,22 0,8 -2,15 -7,21 -51,44 -111,66 -179,66 -75,0 -140,-27 -193,-80 -53,-53 -80,-118 -80,-193 0,-75 27,-140 80,-193 53,-53 118,-80 193,-80 76,0 140,27 194,80 53,53 80,118 80,193 0,9 -3,16 -9,22 -6,6 -13,9 -22,9 h -455 c 10,49 31,89 62,120 42,42 92,63 150,63 27,0 52,-4 75,-13 22,-9 43,-21 62,-37 6,-4 12,-7 19,-7 z m 307,67 c 0,14 -5,26 -15,36 -9,10 -21,15 -36,15 -14,0 -26,-5 -36,-15 -9,-10 -14,-22 -14,-36 0,-14 5,-26 14,-36 10,-10 22,-15 36,-15 15,0 27,5 36,15 10,9 15,21 15,36 z m 515,-68 c 8,0 15,3 21,9 6,6 9,13 9,22 0,9 -3,16 -9,22 -25,21 -52,37 -83,49 -30,11 -62,17 -95,17 -76,0 -140,-27 -194,-80 -53,-53 -80,-118 -80,-193 0,-75 27,-140 80,-193 54,-53 118,-80 194,-80 33,0 65,6 96,17 30,11 57,28 82,49 3,3 5,7 7,11 3,4 4,9 4,13 0,8 -3,16 -9,21 -6,6 -13,9 -22,9 -7,0 -14,-2 -19,-7 -40,-35 -86,-52 -139,-52 -59,0 -109,21 -151,63 -41,41 -62,91 -62,150 0,59 21,109 62,150 42,42 92,63 151,63 25,0 50,-5 74,-14 24,-9 46,-22 65,-38 5,-4 11,-6 18,-6 z m 663,-155 c 0,76 -27,140 -80,193 -54,53 -118,80 -193,80 -76,0 -140,-27 -194,-80 -53,-53 -80,-118 -80,-193 0,-75 27,-140 80,-193 54,-53 118,-80 194,-80 75,0 139,27 193,80 53,53 80,118 80,193 z M 5042,331 c -59,0 -109,21 -151,63 -42,42 -62,92 -62,150 0,59 20,109 62,150 42,42 92,63 151,63 58,0 108,-21 150,-62 41,-41 62,-91 62,-150 0,-59 -21,-109 -62,-150 -42,-42 -92,-62 -150,-62 z m 410,456 c 0,9 -3,16 -9,22 -6,6 -13,9 -22,9 -8,0 -15,-3 -21,-9 -6,-6 -9,-13 -9,-21 V 302 c 0,-8 3,-16 9,-21 6,-6 13,-9 21,-9 9,0 16,3 22,9 6,6 9,13 9,22 v 33 c 49,-42 100,-63 152,-63 58,0 108,21 150,63 10,10 21,23 32,38 11,-15 21,-28 32,-38 42,-42 92,-62 150,-62 59,0 109,21 151,63 41,41 62,92 62,150 v 304 c 0,9 -3,16 -9,22 -6,6 -13,9 -22,9 -8,0 -15,-3 -21,-9 -6,-6 -9,-13 -9,-21 V 488 c 0,-42 -15,-78 -45,-107 -30,-30 -65,-45 -107,-45 -41,0 -77,15 -107,45 -30,30 -45,65 -45,107 v 304 c 0,9 -3,16 -9,22 -6,6 -13,9 -21,9 -9,0 -16,-3 -22,-9 -6,-6 -9,-13 -9,-21 V 489 c 0,-42 -14,-78 -44,-107 -30,-30 -66,-45 -107,-45 -42,0 -78,15 -108,45 -30,30 -44,65 -44,107 z"
           inkscape:connector-curvature="0" />
      </g>
    </clipPath>
  </defs>
  <sodipodi:namedview
     id="base"
     pagecolor="#ffffff"
     bordercolor="#666666"
     borderopacity="1.0"
     inkscape:pageopacity="0.0"
     inkscape:pageshadow="2"
     inkscape:zoom="8.1666667"
     inkscape:cx="63.837544"
     inkscape:cy="88.64352"
     inkscape:document-units="mm"
     inkscape:current-layer="layer1"
     showgrid="false"
     units="px"
     inkscape:window-width="3840"
     inkscape:window-height="2035"
     inkscape:window-x="633"
     inkscape:window-y="-13"
     inkscape:window-maximized="1" />
  <metadata
     id="metadata5">
    <rdf:RDF>
      <cc:Work
         rdf:about="">
        <dc:format>image/svg+xml</dc:format>
        <dc:type
           rdf:resource="http://purl.org/dc/dcmitype/StillImage" />
        <dc:title></dc:title>
      </cc:Work>
    </rdf:RDF>
  </metadata>
  <g
     inkscape:label="Layer 1"
     inkscape:groupmode="layer"
     id="layer1"
     transform="translate(0,-246.19998)">
    <path
       sodipodi:type="star"
       style="fill:#444444;fill-opacity:1;stroke-width:0.20809446"
       id="path821"
       sodipodi:sides="6"
       sodipodi:cx="97.673737"
       sodipodi:cy="184.21606"
       sodipodi:r1="112.78392"
       sodipodi:r2="97.673744"
       sodipodi:arg1="0.52359878"
       sodipodi:arg2="1.0471976"
       inkscape:flatsided="true"
       inkscape:rounded="0"
       inkscape:randomized="0"
       d="M 195.34748,240.60803 97.673736,296.99998 -3.7838365e-6,240.60802 -3.2873954e-6,127.8241 97.673737,71.432144 195.34748,127.8241 Z"
       transform="matrix(0.22494275,0,0,0.22520941,8.5114655e-7,230.11279)"
       inkscape:label="Border Hex" />
    <path
       sodipodi:type="star"
       style="fill:#ffffff;fill-opacity:1;stroke-width:0.20809446"
       id="path821-6"
       sodipodi:sides="6"
       sodipodi:cx="97.673737"
       sodipodi:cy="184.21606"
       sodipodi:r1="112.78392"
       sodipodi:r2="97.673744"
       sodipodi:arg1="0.52359878"
       sodipodi:arg2="1.0471976"
       inkscape:flatsided="true"
       inkscape:rounded="0"
       inkscape:randomized="0"
       d="M 195.34748,240.60803 97.673736,296.99998 -3.7838365e-6,240.60802 -3.2873954e-6,127.8241 97.673737,71.432144 195.34748,127.8241 Z"
       transform="matrix(0.19854641,0,0,0.19878178,2.5782303,234.98118)"
       inkscape:label="Inner Hex" />
    <rect
       width="86.618965"
       height="64.932518"
       x="-20.098305"
       y="241.78346"
       id="rect6580"
       style="fill:url(#pattern6614);stroke-width:0.03170534"
       inkscape:label="Graph Paper"
       clip-path="url(#clipPath6634)" />
    <g
       transform="matrix(0.13947265,0,0,0.13947265,4.1185009,255.91407)"
       id="g1656"
       inkscape:label="Octocat">
      <path
         style="fill:#9edcf2"
         inkscape:connector-curvature="0"
         id="path1614"
         d="m 200.9,199.8 c 0,13.9 -32.2,25.1 -71.9,25.1 -39.7,0 -71.9,-11.3 -71.9,-25.1 0,-13.9 32.2,-25.1 71.9,-25.1 39.7,0 71.9,11.2 71.9,25.1 z m 0,0" />
      <path
         style="fill:#7dbce7"
         inkscape:connector-curvature="0"
         id="path1622"
         d="m 200.9,199.8 c 0,13.9 -32.2,25.1 -71.9,25.1 -39.7,0 -71.9,-11.3 -71.9,-25.1 0,-13.9 32.2,-25.1 71.9,-25.1 39.7,0 71.9,11.2 71.9,25.1 z m 0,0"
         clip-path="url(#b)" />
      <path
         style="fill:#9edcf2"
         inkscape:connector-curvature="0"
         id="path1624"
         d="m 46.9,125.9 -2.1,7.2 c 0,0 -0.5,2.6 1.9,3.1 2.6,-0.1 2.4,-2.5 2.2,-3.2 z m 0,0" />
      <path
         style="fill:#010101"
         inkscape:connector-curvature="0"
         id="path1626"
         d="m 255.8,95.6 0.2,-0.9 c -21.1,-4.2 -42.7,-4.3 -55.8,-3.7 2.1,-7.7 2.8,-16.7 2.8,-26.6 0,-14.3 -5.4,-25.7 -14,-34.3 1.5,-4.9 3.5,-15.8 -2,-29.7 0,0 -9.8,-3.1 -32.1,11.8 -8.7,-2.2 -18,-3.3 -27.3,-3.3 -10.2,0 -20.5,1.3 -30.2,3.9 C 74.4,-2.9 64.3,0.3 64.3,0.3 57.7,16.8 61.8,29.1 63,32.1 55.2,40.5 50.5,51.2 50.5,64.3 c 0,9.9 1.1,18.8 3.9,26.5 C 41.2,90.3 20.4,90.5 0,94.6 l 0.2,0.9 c 20.4,-4.1 41.4,-4.2 54.5,-3.7 0.6,1.6 1.3,3.2 2,4.7 -13,0.4 -35.1,2.1 -56.3,8.1 l 0.3,0.9 c 21.4,-6 43.7,-7.6 56.6,-8 7.8,14.4 23,23.8 50.2,26.7 -3.9,2.6 -7.8,7 -9.4,14.5 -5.3,2.5 -21.9,8.7 -31.9,-8.5 0,0 -5.6,-10.2 -16.3,-11 0,0 -10.4,-0.2 -0.7,6.5 0,0 6.9,3.3 11.7,15.6 0,0 6.3,21 36.4,14.2 V 177 c 0,0 -0.6,7.7 -7.7,10.2 0,0 -4.2,2.9 0.3,4.5 0,0 19.5,1.6 19.5,-14.4 v -23.6 c 0,0 -0.8,-9.4 3.8,-12.6 v 38.8 c 0,0 -0.3,9.3 -5.1,12.8 0,0 -3.2,5.7 3.8,4.2 0,0 13.4,-1.9 14,-17.6 l 0.3,-39.3 h 3.2 l 0.3,39.3 c 0.6,15.6 14,17.6 14,17.6 7,1.6 3.8,-4.2 3.8,-4.2 -4.8,-3.5 -5.1,-12.8 -5.1,-12.8 v -38.5 c 4.6,3.6 3.8,12.3 3.8,12.3 v 23.6 c 0,16 19.5,14.4 19.5,14.4 4.5,-1.6 0.3,-4.5 0.3,-4.5 -7,-2.6 -7.7,-10.2 -7.7,-10.2 v -31 c 0,-12.1 -5.1,-18.5 -10.1,-21.8 29,-2.9 42.9,-12.2 49.3,-26.8 12.7,0.3 35.6,1.9 57.4,8.1 l 0.3,-0.9 c -21.7,-6.1 -44.4,-7.7 -57.3,-8.1 0.6,-1.5 1.1,-3 1.6,-4.6 13.4,-0.5 35.1,-0.5 56.3,3.7 z m 0,0" />
      <path
         style="fill:#f5ccb3"
         inkscape:connector-curvature="0"
         id="path1628"
         d="m 174.6,63.7 c 6.2,5.7 9.9,12.5 9.9,19.8 0,34.4 -25.6,35.3 -57.2,35.3 -31.6,0 -57.2,-4.8 -57.2,-35.3 0,-7.3 3.6,-14.1 9.8,-19.7 10.3,-9.4 27.7,-4.4 47.4,-4.4 19.7,0 37,-5.1 47.3,4.3 z m 0,0" />
      <path
         style="fill:#ffffff"
         inkscape:connector-curvature="0"
         id="path1630"
         d="m 108.3,85.3 c 0,9.5 -5.3,17.1 -11.9,17.1 -6.6,0 -11.9,-7.7 -11.9,-17.1 0,-9.5 5.3,-17.1 11.9,-17.1 6.6,-0.1 11.9,7.6 11.9,17.1 z m 0,0" />
      <path
         style="fill:#af5c51"
         inkscape:connector-curvature="0"
         id="path1632"
         d="m 104.5,85.5 c 0,6.3 -3.6,11.4 -7.9,11.4 -4.4,0 -7.9,-5.1 -7.9,-11.4 0,-6.3 3.6,-11.4 7.9,-11.4 4.3,0 7.9,5.1 7.9,11.4 z m 0,0" />
      <path
         style="fill:#ffffff"
         inkscape:connector-curvature="0"
         id="path1634"
         d="m 172.2,85.3 c 0,9.5 -5.3,17.1 -11.9,17.1 -6.6,0 -11.9,-7.7 -11.9,-17.1 0,-9.5 5.3,-17.1 11.9,-17.1 6.5,-0.1 11.9,7.6 11.9,17.1 z m 0,0" />
      <path
         style="fill:#af5c51"
         inkscape:connector-curvature="0"
         id="path1636"
         d="m 168.3,85.5 c 0,6.3 -3.6,11.4 -7.9,11.4 -4.4,0 -7.9,-5.1 -7.9,-11.4 0,-6.3 3.6,-11.4 7.9,-11.4 4.4,0 7.9,5.1 7.9,11.4 z m 0,0 m -37.8,15 c 0,1.6 -1.3,3 -3,3 -1.6,0 -3,-1.3 -3,-3 0,-1.7 1.3,-3 3,-3 1.6,0 3,1.3 3,3 z m 0,0 m -9.9,7.5 c -0.2,-0.5 0.1,-1 0.6,-1.2 0.5,-0.2 1,0.1 1.2,0.6 0.8,2.2 2.8,3.6 5.1,3.6 2.3,0 4.3,-1.5 5.1,-3.6 0.2,-0.5 0.7,-0.8 1.2,-0.6 0.5,0.2 0.8,0.7 0.6,1.2 -1,2.9 -3.8,4.9 -6.9,4.9 -3.1,0 -5.9,-2 -6.9,-4.9 z m 0,0" />
      <path
         style="fill:#c4e5d9"
         inkscape:connector-curvature="0"
         id="path1638"
         d="m 54.5,121.6 c 0,0.8 -0.9,1.4 -2.1,1.4 -1.1,0 -2.1,-0.6 -2.1,-1.4 0,-0.8 0.9,-1.4 2.1,-1.4 1.2,0 2.1,0.6 2.1,1.4 z m 0,0 m 5.8,3.2 c 0,0.8 -0.9,1.4 -2.1,1.4 -1.1,0 -2.1,-0.6 -2.1,-1.4 0,-0.8 0.9,-1.4 2.1,-1.4 1.2,0 2.1,0.6 2.1,1.4 z m 0,0 m 3.5,4.2 c 0,0.8 -0.9,1.4 -2.1,1.4 -1.1,0 -2.1,-0.6 -2.1,-1.4 0,-0.8 0.9,-1.4 2.1,-1.4 1.2,-0.1 2.1,0.6 2.1,1.4 z m 0,0 m 3.2,4.8 c 0,0.8 -0.9,1.4 -2.1,1.4 -1.1,0 -2.1,-0.6 -2.1,-1.4 0,-0.8 0.9,-1.4 2.1,-1.4 1.2,-0.1 2.1,0.6 2.1,1.4 z m 0,0 m 3.5,4.4 c 0,0.8 -0.9,1.4 -2.1,1.4 -1.1,0 -2.1,-0.6 -2.1,-1.4 0,-0.8 0.9,-1.4 2.1,-1.4 1.2,0 2.1,0.6 2.1,1.4 z m 0,0 m 4.8,3.9 c 0,0.8 -0.9,1.4 -2.1,1.4 -1.1,0 -2.1,-0.6 -2.1,-1.4 0,-0.8 0.9,-1.4 2.1,-1.4 1.2,-0.1 2.1,0.6 2.1,1.4 z m 0,0 m 6.7,2.5 c 0,0.8 -0.9,1.4 -2.1,1.4 -1.1,0 -2.1,-0.6 -2.1,-1.4 0,-0.8 0.9,-1.4 2.1,-1.4 1.2,0 2.1,0.6 2.1,1.4 z m 0,0 m 6.7,0 c 0,0.8 -0.9,1.4 -2.1,1.4 -1.1,0 -2.1,-0.6 -2.1,-1.4 0,-0.8 0.9,-1.4 2.1,-1.4 1.2,0 2.1,0.6 2.1,1.4 z m 0,0 m 6.8,-1.1 c 0,0.8 -0.9,1.4 -2.1,1.4 -1.1,0 -2.1,-0.6 -2.1,-1.4 0,-0.8 0.9,-1.4 2.1,-1.4 1.1,0 2.1,0.6 2.1,1.4 z m 0,0" />
    </g>
  </g>
  <style
     id="style6571"
     type="text/css"><![CDATA[.x{font:20px verdana;fill:#fff;stroke:#555;stroke-width:20px;opacity:0.35;}.o{stroke:none;opacity:0.01;}]]></style>
</svg>
