<?xml version="1.0" encoding="UTF-8" standalone="no"?>
<!-- Created with Inkscape (http://www.inkscape.org/) -->

<svg
   xmlns:dc="http://purl.org/dc/elements/1.1/"
   xmlns:cc="http://creativecommons.org/ns#"
   xmlns:rdf="http://www.w3.org/1999/02/22-rdf-syntax-ns#"
   xmlns:svg="http://www.w3.org/2000/svg"
   xmlns="http://www.w3.org/2000/svg"
   xmlns:sodipodi="http://sodipodi.sourceforge.net/DTD/sodipodi-0.dtd"
   xmlns:inkscape="http://www.inkscape.org/namespaces/inkscape"
   width="166.08"
   height="192"
   viewBox="0 0 43.942003 50.800002"
   version="1.1"
   id="svg8"
   inkscape:version="0.92.3 (2405546, 2018-03-11)"
   sodipodi:docname="MSFT GitHub.svg">
  <defs
     id="defs2">
    <pattern
       id="p1"
       patternUnits="userSpaceOnUse"
       x="0"
       y="0"
       width="85"
       height="85"
       patternTransform="translate(1366,1024) rotate(360 0 0)">
      <path
         fill="#99e4f9"
         fill-opacity="0.7"
         d="M0 0H85v5H5V85H0z"
         id="path2809" />
    </pattern>
    <pattern
       patternTransform="translate(1366,1024) rotate(360 0 0)"
       height="85"
       width="85"
       y="0"
       x="0"
       patternUnits="userSpaceOnUse"
       id="p1-2">
      <path
         id="path6573"
         d="M0 0H85v5H5V85H0z"
         fill-opacity="0.7"
         fill="#99e4f9" />
    </pattern>
    <clipPath
       clipPathUnits="userSpaceOnUse"
       id="clipPath6634">
      <path
         inkscape:label="Clipper"
         transform="matrix(0.19854641,0,0,0.19878178,2.5782303,234.98118)"
         d="M 195.34748,240.60803 97.673736,296.99998 -3.7838365e-6,240.60802 -3.2873954e-6,127.8241 97.673737,71.432144 195.34748,127.8241 Z"
         inkscape:randomized="0"
         inkscape:rounded="0"
         inkscape:flatsided="true"
         sodipodi:arg2="1.0471976"
         sodipodi:arg1="0.52359878"
         sodipodi:r2="97.673744"
         sodipodi:r1="112.78392"
         sodipodi:cy="184.21606"
         sodipodi:cx="97.673737"
         sodipodi:sides="6"
         id="path6636"
         style="fill:#00ffff;fill-opacity:1;stroke-width:0.20809446"
         sodipodi:type="star" />
    </clipPath>
    <clipPath
       id="b">
      <g
         class="x"
         id="use1619"
         transform="matrix(0.05779911,0,0,0.05779911,2351.6819,1975.7511)">
        <path
           id="path2884"
           d="m 549,679 c 9,0 16,3 21,9 6,6 9,13 9,22 0,8 -3,15 -9,22 -25,21 -52,37 -82,49 -30,11 -62,17 -95,17 -75,0 -139,-26 -192,-80 -53,-53 -80,-117 -80,-192 0,-75 27,-139 80,-192 53,-53 117,-80 192,-80 33,0 65,6 95,17 30,11 58,28 82,49 7,6 11,14 11,23 0,9 -3,16 -9,22 -6,6 -13,9 -21,9 -7,0 -14,-2 -19,-7 -39,-34 -86,-52 -139,-52 -59,0 -108,21 -149,62 -41,41 -62,91 -62,149 0,59 21,108 62,149 41,41 91,62 149,62 25,0 50,-5 74,-14 24,-9 45,-22 64,-38 5,-4 11,-6 19,-6 z M 783,526 C 783,634 745,727 668,803 592,879 499,917 392,917 284,917 192,879 115,803 39,726 0,634 0,526 0,418 38,326 115,250 191,173 283,135 392,135 c 108,0 200,38 276,115 77,76 115,168 115,276 z M 392,176 C 296,176 213,210 144,279 76,347 42,429 42,526 c 0,97 34,179 102,248 69,68 152,103 248,103 96,0 178,-34 247,-103 C 708,705 742,623 742,527 742,430 708,348 639,280 571,211 489,177 392,177 Z m 937,367 -186,-223 c -5,-5 -7,-12 -7,-20 0,-8 3,-16 9,-21 6,-6 13,-9 22,-9 8,0 15,3 21,9 l 181,216 180,-216 c 7,-6 14,-9 22,-9 9,0 16,3 22,9 6,6 9,13 9,22 0,8 -3,15 -7,20 l -187,223 188,225 c 4,6 6,12 6,19 0,9 -3,16 -9,22 -6,6 -13,9 -22,9 -8,0 -15,-3 -20,-9 L 1369,593 1187,810 c -5,6 -12,9 -20,9 -9,0 -16,-3 -22,-9 -6,-6 -9,-13 -9,-21 0,-7 2,-13 6,-18 z m 412,244 c 0,9 -3,16 -9,22 -6,6 -13,9 -22,9 -8,0 -15,-3 -21,-9 -6,-6 -9,-13 -9,-21 V 302 c 0,-8 3,-16 9,-21 6,-6 13,-9 21,-9 9,0 16,3 22,9 6,6 9,13 9,22 v 33 c 49,-42 100,-63 152,-63 58,0 108,21 150,63 10,10 21,23 32,38 11,-15 22,-28 32,-38 42,-42 92,-62 150,-62 59,0 109,21 151,63 41,41 62,92 62,150 v 304 c 0,9 -3,16 -9,22 -6,6 -13,9 -22,9 -8,0 -15,-3 -21,-9 -6,-6 -9,-13 -9,-21 V 488 c 0,-42 -15,-78 -45,-107 -30,-30 -65,-45 -107,-45 -41,0 -77,15 -107,45 -30,30 -45,65 -45,107 v 304 c 0,9 -3,16 -9,22 -6,6 -13,9 -21,9 -9,0 -16,-3 -22,-9 -6,-6 -9,-13 -9,-21 V 489 c 0,-42 -14,-78 -44,-107 -30,-30 -66,-45 -107,-45 -42,0 -78,15 -108,45 -29,30 -44,65 -44,107 z m 861,-243 c 0,59 21,109 63,150 41,42 91,63 150,63 59,0 109,-21 150,-62 42,-41 62,-91 62,-150 0,-59 -20,-109 -62,-150 -41,-42 -91,-62 -150,-62 -59,0 -109,21 -150,63 -42,42 -63,92 -63,150 z m 0,478 c 0,9 -3,16 -9,22 -6,5 -13,8 -21,8 -9,0 -16,-3 -22,-8 -6,-6 -8,-13 -8,-22 V 545 c 0,-75 26,-140 80,-193 53,-53 117,-80 193,-80 75,0 140,27 193,80 54,53 80,118 80,193 0,76 -26,140 -80,193 -53,53 -118,80 -193,80 -76,0 -140,-27 -193,-80 l -20,-19 z M 3170,66 c 0,-8 3,-16 9,-21 6,-6 13,-9 21,-9 9,0 16,3 22,9 6,6 9,13 9,21 v 691 h 50 c 9,0 16,3 22,9 6,6 9,13 9,22 0,9 -3,16 -9,22 -6,6 -13,9 -22,9 h -81 c -8,0 -15,-3 -21,-9 -6,-6 -9,-13 -9,-21 z m 716,448 c -9,-48 -30,-89 -61,-120 -42,-42 -92,-62 -151,-62 -58,0 -108,21 -150,63 -31,31 -52,71 -62,120 z m -56,186 c 9,0 16,3 22,9 5,6 8,13 8,22 0,8 -2,15 -7,21 -51,44 -111,66 -179,66 -75,0 -140,-27 -193,-80 -53,-53 -80,-118 -80,-193 0,-75 27,-140 80,-193 53,-53 118,-80 193,-80 76,0 140,27 194,80 53,53 80,118 80,193 0,9 -3,16 -9,22 -6,6 -13,9 -22,9 h -455 c 10,49 31,89 62,120 42,42 92,63 150,63 27,0 52,-4 75,-13 22,-9 43,-21 62,-37 6,-4 12,-7 19,-7 z m 307,67 c 0,14 -5,26 -15,36 -9,10 -21,15 -36,15 -14,0 -26,-5 -36,-15 -9,-10 -14,-22 -14,-36 0,-14 5,-26 14,-36 10,-10 22,-15 36,-15 15,0 27,5 36,15 10,9 15,21 15,36 z m 515,-68 c 8,0 15,3 21,9 6,6 9,13 9,22 0,9 -3,16 -9,22 -25,21 -52,37 -83,49 -30,11 -62,17 -95,17 -76,0 -140,-27 -194,-80 -53,-53 -80,-118 -80,-193 0,-75 27,-140 80,-193 54,-53 118,-80 194,-80 33,0 65,6 96,17 30,11 57,28 82,49 3,3 5,7 7,11 3,4 4,9 4,13 0,8 -3,16 -9,21 -6,6 -13,9 -22,9 -7,0 -14,-2 -19,-7 -40,-35 -86,-52 -139,-52 -59,0 -109,21 -151,63 -41,41 -62,91 -62,150 0,59 21,109 62,150 42,42 92,63 151,63 25,0 50,-5 74,-14 24,-9 46,-22 65,-38 5,-4 11,-6 18,-6 z m 663,-155 c 0,76 -27,140 -80,193 -54,53 -118,80 -193,80 -76,0 -140,-27 -194,-80 -53,-53 -80,-118 -80,-193 0,-75 27,-140 80,-193 54,-53 118,-80 194,-80 75,0 139,27 193,80 53,53 80,118 80,193 z M 5042,331 c -59,0 -109,21 -151,63 -42,42 -62,92 -62,150 0,59 20,109 62,150 42,42 92,63 151,63 58,0 108,-21 150,-62 41,-41 62,-91 62,-150 0,-59 -21,-109 -62,-150 -42,-42 -92,-62 -150,-62 z m 410,456 c 0,9 -3,16 -9,22 -6,6 -13,9 -22,9 -8,0 -15,-3 -21,-9 -6,-6 -9,-13 -9,-21 V 302 c 0,-8 3,-16 9,-21 6,-6 13,-9 21,-9 9,0 16,3 22,9 6,6 9,13 9,22 v 33 c 49,-42 100,-63 152,-63 58,0 108,21 150,63 10,10 21,23 32,38 11,-15 21,-28 32,-38 42,-42 92,-62 150,-62 59,0 109,21 151,63 41,41 62,92 62,150 v 304 c 0,9 -3,16 -9,22 -6,6 -13,9 -22,9 -8,0 -15,-3 -21,-9 -6,-6 -9,-13 -9,-21 V 488 c 0,-42 -15,-78 -45,-107 -30,-30 -65,-45 -107,-45 -41,0 -77,15 -107,45 -30,30 -45,65 -45,107 v 304 c 0,9 -3,16 -9,22 -6,6 -13,9 -21,9 -9,0 -16,-3 -22,-9 -6,-6 -9,-13 -9,-21 V 489 c 0,-42 -14,-78 -44,-107 -30,-30 -66,-45 -107,-45 -42,0 -78,15 -108,45 -30,30 -44,65 -44,107 z"
           inkscape:connector-curvature="0" />
      </g>
    </clipPath>
    <clipPath
       id="a">
      <path
         id="path8573"
         clip-rule="evenodd"
         fill="none"
         d="M27.12 111.45c-.17.37-.75.48-1.29.23s-.84-.75-.67-1.13.75-.49 1.29-.23.85.76.67 1.13" />
    </clipPath>
    <clipPath
       id="b-5">
      <path
         id="path8576"
         clip-rule="evenodd"
         fill="none"
         d="M30.15 114.83a1.15 1.15 0 0 1-1.53-.34c-.49-.53-.58-1.23-.22-1.56s1.05-.18 1.54.35.58 1.22.21 1.55" />
    </clipPath>
    <clipPath
       id="c">
      <path
         id="path8579"
         clip-rule="evenodd"
         fill="none"
         d="M33.1 119.14c-.46.32-1.21 0-1.67-.64s-.46-1.47 0-1.79 1.2 0 1.67.63.46 1.48 0 1.8" />
    </clipPath>
    <clipPath
       id="d">
      <path
         id="path8582"
         clip-rule="evenodd"
         fill="none"
         d="M37.14 123.31c-.41.45-1.28.33-1.92-.29s-.84-1.46-.43-1.91a1.42 1.42 0 0 1 1.94.29c.65.6.85 1.46.41 1.91" />
    </clipPath>
    <clipPath
       id="e">
      <path
         id="path8585"
         clip-rule="evenodd"
         fill="none"
         d="M42.72 125.73c-.18.58-1 .85-1.87.6s-1.4-.94-1.23-1.54 1-.86 1.88-.6 1.4.94 1.22 1.54" />
    </clipPath>
    <clipPath
       id="f">
      <path
         id="path8588"
         clip-rule="evenodd"
         fill="none"
         d="M48.85 126.18c0 .61-.7 1.12-1.59 1.14s-1.62-.48-1.63-1.09.71-1.13 1.6-1.15 1.62.48 1.62 1.1" />
    </clipPath>
    <clipPath
       id="g">
      <path
         id="path8591"
         clip-rule="evenodd"
         fill="none"
         d="M54.55 125.21c.11.6-.51 1.22-1.39 1.38s-1.68-.21-1.79-.81.52-1.24 1.39-1.4 1.68.21 1.79.83" />
    </clipPath>
  </defs>
  <sodipodi:namedview
     id="base"
     pagecolor="#ffffff"
     bordercolor="#666666"
     borderopacity="1.0"
     inkscape:pageopacity="0.0"
     inkscape:pageshadow="2"
     inkscape:zoom="4.0833333"
     inkscape:cx="128.83721"
     inkscape:cy="94.911794"
     inkscape:document-units="mm"
     inkscape:current-layer="layer1"
     showgrid="false"
     units="px"
     inkscape:window-width="3840"
     inkscape:window-height="2035"
     inkscape:window-x="633"
     inkscape:window-y="-13"
     inkscape:window-maximized="1" />
  <metadata
     id="metadata5">
    <rdf:RDF>
      <cc:Work
         rdf:about="">
        <dc:format>image/svg+xml</dc:format>
        <dc:type
           rdf:resource="http://purl.org/dc/dcmitype/StillImage" />
        <dc:title></dc:title>
      </cc:Work>
    </rdf:RDF>
  </metadata>
  <g
     inkscape:label="Layer 1"
     inkscape:groupmode="layer"
     id="layer1"
     transform="translate(0,-246.19998)">
    <path
       sodipodi:type="star"
       style="fill:#0a2e56;fill-opacity:1;stroke-width:0.20809446"
       id="path821"
       sodipodi:sides="6"
       sodipodi:cx="97.673737"
       sodipodi:cy="184.21606"
       sodipodi:r1="112.78392"
       sodipodi:r2="97.673744"
       sodipodi:arg1="0.52359878"
       sodipodi:arg2="1.0471976"
       inkscape:flatsided="true"
       inkscape:rounded="0"
       inkscape:randomized="0"
       d="M 195.34748,240.60803 97.673736,296.99998 -3.7838365e-6,240.60802 -3.2873954e-6,127.8241 97.673737,71.432144 195.34748,127.8241 Z"
       transform="matrix(0.22494275,0,0,0.22520941,8.5114655e-7,230.11279)"
       inkscape:label="Border Hex" />
    <path
       sodipodi:type="star"
       style="fill:#205084;fill-opacity:1;stroke-width:0.20809446"
       id="path821-6"
       sodipodi:sides="6"
       sodipodi:cx="97.673737"
       sodipodi:cy="184.21606"
       sodipodi:r1="112.78392"
       sodipodi:r2="97.673744"
       sodipodi:arg1="0.52359878"
       sodipodi:arg2="1.0471976"
       inkscape:flatsided="true"
       inkscape:rounded="0"
       inkscape:randomized="0"
       d="M 195.34748,240.60803 97.673736,296.99998 -3.7838365e-6,240.60802 -3.2873954e-6,127.8241 97.673737,71.432144 195.34748,127.8241 Z"
       transform="matrix(0.19854641,0,0,0.19878178,2.5782303,234.98118)"
       inkscape:label="Inner Hex" />
    <g
       id="g4510"
       transform="matrix(0.09392968,0,0,0.09392968,-1.5220991,231.65638)"
       inkscape:label="Microsoft Squares">
      <path
         style="fill:#f25022"
         inkscape:connector-curvature="0"
         d="m 65.55,360.75 h 61.3 v 61.3 h -61.3 z"
         id="path9275" />
      <path
         style="fill:#7fba00"
         inkscape:connector-curvature="0"
         d="m 133.25,360.75 h 61.3 v 61.3 h -61.3 z"
         id="path9277" />
      <path
         style="fill:#00a4ef"
         inkscape:connector-curvature="0"
         d="m 65.55,428.45 h 61.3 v 61.3 h -61.3 z"
         id="path9279" />
      <path
         style="fill:#ffb900"
         inkscape:connector-curvature="0"
         d="m 133.25,428.45 h 61.3 v 61.3 h -61.3 z"
         id="path9281" />
    </g>
    <path
       id="path8596"
       d="m 33.414424,265.54158 a 6.2104672,6.2104672 0 0 0 -1.962759,12.10205 c 0.309821,0.0577 0.424357,-0.13515 0.424357,-0.29912 0,-0.14749 -0.0058,-0.63693 -0.009,-1.15359 -1.730394,0.37575 -2.092129,-0.73253 -2.092129,-0.73253 -0.281807,-0.7177 -0.688862,-0.9064 -0.688862,-0.9064 -0.563615,-0.38563 0.04202,-0.37822 0.04202,-0.37822 0.623764,0.0445 0.951715,0.64025 0.951715,0.64025 0.553725,0.94925 1.452709,0.67485 1.807029,0.51665 0.05603,-0.40129 0.216709,-0.67569 0.394693,-0.83059 -1.37937,-0.15739 -2.829607,-0.68968 -2.829607,-3.06939 a 2.4019519,2.4019519 0 0 1 0.636951,-1.67025 c -0.06427,-0.15655 -0.276863,-0.78856 0.06015,-1.64799 0,0 0.521592,-0.1648 1.708149,0.63696 a 5.880044,5.880044 0 0 1 3.109764,0 c 1.184908,-0.8034 1.705675,-0.63696 1.705675,-0.63696 0.337839,0.85531 0.125246,1.48319 0.06097,1.64799 a 2.397832,2.397832 0 0 1 0.639422,1.66613 c 0,2.38959 -1.452709,2.91035 -2.835376,3.06443 0.222481,0.19283 0.421063,0.57021 0.421063,1.15361 0,0.83142 -0.0074,1.49967 -0.0074,1.70403 0,0.16479 0.112064,0.35926 0.42683,0.29829 a 6.2104672,6.2104672 0 0 0 -1.963585,-12.10535 z"
       inkscape:connector-curvature="0"
       style="fill:#ffffff;fill-opacity:1;fill-rule:evenodd;stroke-width:0.0823997"
       inkscape:label="GitHub" />
    <path
       inkscape:connector-curvature="0"
       id="path8710"
       style="font-style:normal;font-variant:normal;font-weight:900;font-stretch:normal;font-size:medium;line-height:1.25;font-family:'Segoe UI';-inkscape-font-specification:'Segoe UI Heavy';letter-spacing:0px;word-spacing:0px;fill:#ffffff;fill-opacity:1;stroke:none;stroke-width:0.63282877"
       d="m 22.576636,272.20562 v 1.8441 h -1.226105 v -1.8441 h -1.82927 v -1.22116 h 1.82927 v -1.83422 h 1.226105 v 1.83422 h 1.844104 v 1.22116 z"
       inkscape:label="Plus Sign" />
  </g>
  <style
     id="style6571"
     type="text/css"><![CDATA[.x{font:20px verdana;fill:#fff;stroke:#555;stroke-width:20px;opacity:0.35;}.o{stroke:none;opacity:0.01;}]]></style>
</svg>
